<svg width="14" height="14" viewBox="0 0 14 14" fill="none" xmlns="http://www.w3.org/2000/svg">
<path d="M12.8059 1.70316C12.8059 1.55584 12.6854 1.4353 12.5381 1.4353L10.3283 1.44535L7.00014 5.41298L3.67536 1.4487L1.46219 1.43865C1.31487 1.43865 1.19434 1.55584 1.19434 1.70651C1.19434 1.77012 1.21777 1.83039 1.25795 1.88062L5.61398 7.07035L1.25795 12.2567C1.21749 12.3058 1.19504 12.3672 1.19434 12.4308C1.19434 12.5782 1.31487 12.6987 1.46219 12.6987L3.67536 12.6887L7.00014 8.72102L10.3249 12.6853L12.5347 12.6953C12.6821 12.6953 12.8026 12.5782 12.8026 12.4275C12.8026 12.3639 12.7792 12.3036 12.739 12.2534L8.38965 7.067L12.7457 1.87727C12.7859 1.83039 12.8059 1.76678 12.8059 1.70316Z" fill="white" fill-opacity="0.6"/>
<path d="M12.5381 1.1853L12.5369 1.18531L10.3271 1.19535L10.2112 1.19588L10.1367 1.28468L7.00015 5.02396L3.86691 1.28805L3.79242 1.19923L3.6765 1.1987L1.46333 1.18865L1.46333 1.18865H1.46219C1.17885 1.18865 0.944336 1.41573 0.944336 1.70651C0.944336 1.83318 0.991228 1.94741 1.06273 2.03679L1.06268 2.03683L1.06646 2.04134L5.28754 7.07029L1.06652 12.0959L1.06651 12.0959L1.06506 12.0977C0.98829 12.1908 0.945696 12.3074 0.944351 12.4281H0.944336V12.4308C0.944336 12.7162 1.1768 12.9487 1.46219 12.9487L1.46333 12.9487L3.6765 12.9386L3.79248 12.9381L3.86698 12.8492L7.00022 9.11016L10.1334 12.846L10.2079 12.9348L10.3238 12.9353L12.5336 12.9453H12.5347C12.8181 12.9453 13.0526 12.7183 13.0526 12.4275C13.0526 12.3008 13.0057 12.1866 12.9342 12.0972L12.9342 12.0972L12.9305 12.0927L8.71598 7.06707L12.9355 2.03996C12.9358 2.03957 12.9362 2.03917 12.9365 2.03877C13.0211 1.93943 13.0559 1.81555 13.0559 1.70316C13.0559 1.41777 12.8235 1.1853 12.5381 1.1853Z" stroke="white" stroke-opacity="0.6" stroke-width="0.5"/>
</svg>
