<?xml version="1.0" encoding="utf-8"?>
<!-- Generator: Adobe Illustrator 26.0.0, SVG Export Plug-In . SVG Version: 6.00 Build 0)  -->
<svg version="1.1" id="Layer_1" xmlns="http://www.w3.org/2000/svg" xmlns:xlink="http://www.w3.org/1999/xlink" x="0px" y="0px"
	 viewBox="0 0 709.6 203.3" style="enable-background:new 0 0 709.6 203.3;" xml:space="preserve">
<style type="text/css">
	.st0{fill:url(#SVGID_1_);}
	.st1{fill:#FFFFFF;}
</style>
<linearGradient id="SVGID_1_" gradientUnits="userSpaceOnUse" x1="166.3398" y1="48.4434" x2="46.7692" y2="154.2296">
	<stop  offset="0" style="stop-color:#02A0C3"/>
	<stop  offset="1" style="stop-color:#43EDD4"/>
</linearGradient>
<path class="st0" d="M106.2,17c-46.7,0-84.6,37.9-84.6,84.6s37.9,84.6,84.6,84.6s84.6-37.9,84.6-84.6S152.9,17,106.2,17z M130.2,94
	v31.1L99.5,94H130.2z M59.4,54.9l29.2,28.5v45.8H59.4V54.9z M74,148.5l-14.6-14.1h79.8l13.8,14.1H74z"/>
<path class="st1" d="M510,44.7c12.2,0,24.4-0.1,36.6,0c15.4,0.1,26.1,12.3,24.2,27.5c-0.5,4.1-2.4,7.7-5.2,10.7
	c-1.8,2-1.7,3.2,0,5.1c10,11.3,5.8,29.9-8.9,36.5c-3.2,1.4-6.5,2-9.9,2c-25.1,0-50.2,0-75.3,0.1c-2.6,0-3.7-0.8-3.7-3.5
	c0.1-24.9,0.1-49.9,0-74.8c0-2.9,1-3.7,3.8-3.7C484.4,44.8,497.2,44.7,510,44.7z M515.8,57.4c-10.2,0-20.5,0.1-30.7-0.1
	c-2.8,0-3.9,0.7-3.8,3.7c0.2,4.9,0.2,9.9,0,14.8c-0.1,2.7,0.8,3.6,3.6,3.6c20.1-0.1,40.1,0,60.2-0.1c2.4,0,4.8-0.3,6.9-1.5
	c4.5-2.4,6.7-7.5,5.4-12.4c-1.2-4.6-5.5-8.1-10.5-8.1C536.5,57.3,526.2,57.4,515.8,57.4z M516.1,113.6c10.1,0,20.3,0.1,30.4,0
	c6.6,0,11.1-4.4,11.2-10.7c0.1-6.1-4.6-10.8-11.1-10.8c-20.7-0.1-41.3,0-62-0.1c-2.5,0-3.2,1-3.2,3.3c0.1,4.8,0.1,9.7,0,14.5
	c-0.1,2.8,0.9,3.8,3.7,3.8C495.4,113.5,505.7,113.6,516.1,113.6z"/>
<path class="st1" d="M405.5,126.6c-15.7,0-31.4,0-47.1,0c-4,0-4.2-0.1-4.2-4.2c0-24.5,0-49.1,0-73.6c0-4,0.1-4.1,4.2-4.1
	c31.5,0,63.1,0,94.6,0c4.3,0,4.3,0,4.3,4.3c0,1.5-0.1,3.1,0,4.6c0.3,3.1-1,3.8-3.9,3.8c-27-0.1-54-0.1-81,0c-4.6,0-4.7,0-4.7,4.6
	c0,4.5,0.1,9.1-0.1,13.6c-0.1,3,1,3.9,3.9,3.9c26.6-0.1,53.1-0.1,79.7,0c6.5,0,5.9-0.6,5.9,6.1c0,7.3,0.9,6.6-6.7,6.6
	c-26.2,0-52.3,0-78.5,0c-4.3,0-4.3,0-4.3,4.3c0,4.4,0,8.9,0,13.3c0,3.8,0.2,4,4.1,4c26.4,0,52.7,0,79.1,0c7.3,0,6.3-0.2,6.3,6.3
	c0,7.5,0.9,6.7-6.8,6.8C435.5,126.7,420.5,126.6,405.5,126.6z"/>
<path class="st1" d="M632.9,44.7c8.7,0,17.4-0.1,26.1,0c14.2,0.2,25.3,11.3,25.4,25.5c0.1,10.3,0.1,20.6,0,30.9
	c-0.1,13.5-11.1,25.2-24.6,25.4c-18,0.3-36,0.3-54,0c-13.6-0.2-24.5-11.8-24.6-25.4c0-10.3,0-20.6,0-30.9
	c0.1-14.2,11.1-25.3,25.3-25.4C615.3,44.7,624.1,44.7,632.9,44.7z M632.8,113.6c8.3,0,16.5,0,24.8,0c8.1-0.1,13.4-5.2,13.5-13.3
	c0.1-9.9,0.1-19.8,0-29.7c-0.1-7.8-5.6-13.1-13.5-13.2c-16.5,0-33.1,0-49.6,0c-8.1,0-13.5,5.5-13.6,13.6c0,9.7,0,19.4,0,29
	c0,8.2,5.3,13.4,13.6,13.5C616.3,113.6,624.5,113.6,632.8,113.6z"/>
<path class="st1" d="M300.5,126.6c-12.1,0-24.2,0.1-36.3,0c-11.7-0.1-21.3-7.3-24.8-18.5c-0.6-1.9-0.9-3.8-0.9-5.8
	c0-17.9,0.1-35.9,0-53.8c0-2.9,0.9-4.2,3.9-3.9c1.8,0.2,3.7,0.2,5.6,0c3-0.3,3.9,1,3.9,3.9c-0.1,16.9-0.1,33.8,0,50.7
	c0,9.5,4.7,14.3,14.2,14.3c23.7,0,47.3,0,71,0c4.5,0,4.6,0.1,4.7,4.7c0,8.4,0,8.4-8.4,8.4C322.4,126.6,311.5,126.6,300.5,126.6z"/>
<g>
	<path class="st1" d="M241.6,143.7h3.1c0.1,0,0.2,0,0.2,0.1l15.8,15.5c0,0,0.1,0,0.1,0c0.1,0,0.1,0,0.1-0.1l0-15.2
		c0-0.2,0.1-0.3,0.3-0.3h3.6c0.2,0,0.3,0.1,0.3,0.3l0,21.9c0,0.2-0.1,0.3-0.3,0.3h-2.9c-0.1,0-0.2,0-0.2-0.1l-15.9-15.6
		c0,0-0.1-0.1-0.1,0c0,0,0,0.1,0,0.1v15.3c0,0.2-0.1,0.3-0.3,0.3h-3.6c-0.2,0-0.3-0.1-0.3-0.3V144
		C241.3,143.8,241.4,143.7,241.6,143.7z"/>
	<path class="st1" d="M270.7,144.1c0-0.2,0.1-0.3,0.4-0.3h20.5c0.1,0,0.2,0.1,0.2,0.2l1.2,3.8c0,0.1,0,0.2,0,0.2
		c-0.1,0.1-0.1,0.1-0.2,0.1h-17.5c-0.2,0-0.3,0.1-0.3,0.3v4.2c0,0.2,0.1,0.2,0.2,0.2h13.1c0.1,0,0.1,0,0.2,0.1c0,0.1,0.1,0.1,0,0.2
		l-1.2,3.8c0,0.1-0.1,0.2-0.2,0.2h-11.9c-0.1,0-0.2,0.1-0.2,0.2v4.2c0,0.1,0,0.2,0.1,0.3c0.1,0.1,0.1,0.1,0.2,0.1h17.5
		c0.1,0,0.1,0,0.2,0.1c0.1,0.1,0.1,0.1,0,0.2l-1.2,3.8c0,0.1-0.1,0.2-0.2,0.2H271c-0.2,0-0.4-0.1-0.4-0.3V144.1z"/>
	<path class="st1" d="M296.1,143.7h4.3c0.1,0,0.1,0,0.1,0.1l6.7,15c0,0.1,0.1,0.1,0.1,0.1c0.1,0,0.1,0,0.1-0.1l6-15
		c0-0.1,0.1-0.1,0.1-0.1h2.9c0.1,0,0.1,0,0.1,0.1l6,15c0,0.1,0.1,0.1,0.1,0.1c0.1,0,0.1,0,0.1-0.1l6.7-15c0-0.1,0.1-0.1,0.1-0.1h4.3
		c0.1,0,0.2,0.1,0.1,0.2l-9.9,22.3c0,0.1-0.1,0.1-0.1,0.1h-3c0,0-0.1,0-0.1-0.1l-5.8-14.6c0-0.1-0.1-0.1-0.1-0.1
		c-0.1,0-0.1,0-0.2,0.1l-5.8,14.6c-0.1,0.1-0.1,0.1-0.1,0.1h-3c0,0-0.1,0-0.1-0.1l-9.9-22.3C296,143.8,296,143.7,296.1,143.7z"/>
	<path class="st1" d="M344.5,143.7h4.3c0.1,0,0.1,0,0.1,0.1l6.7,15c0,0.1,0.1,0.1,0.1,0.1c0.1,0,0.1,0,0.1-0.1l6-15
		c0-0.1,0.1-0.1,0.1-0.1h2.9c0.1,0,0.1,0,0.1,0.1l6,15c0,0.1,0.1,0.1,0.1,0.1c0.1,0,0.1,0,0.1-0.1l6.7-15c0-0.1,0.1-0.1,0.1-0.1h4.3
		c0.1,0,0.2,0.1,0.1,0.2l-9.9,22.3c0,0.1-0.1,0.1-0.1,0.1h-3c0,0-0.1,0-0.1-0.1l-5.8-14.6c0-0.1-0.1-0.1-0.1-0.1s-0.1,0-0.2,0.1
		l-5.8,14.6c-0.1,0.1-0.1,0.1-0.1,0.1h-3c0,0-0.1,0-0.1-0.1l-9.9-22.3C344.4,143.8,344.4,143.7,344.5,143.7z"/>
	<path class="st1" d="M380.1,165.9l10.9-22c0.1-0.1,0.2-0.1,0.2-0.1h4.6c0.1,0,0.2,0,0.2,0.1l11,22c0,0.1,0,0.2,0,0.2
		c-0.1,0.1-0.1,0.1-0.2,0.1h-4.2c-0.1,0-0.2-0.1-0.2-0.2l-1.8-3.7c0-0.1-0.1-0.1-0.2-0.1h-13.6c-0.1,0-0.1,0-0.2,0.1l-1.8,3.7
		c-0.1,0.1-0.1,0.2-0.2,0.2h-4.2c-0.1,0-0.2,0-0.2-0.1C380.1,166,380.1,165.9,380.1,165.9z M389,158h9.2c0.1,0,0.1,0,0.1-0.1
		c0-0.1,0-0.1,0-0.1l-4.6-9.3c0-0.1-0.1-0.1-0.2,0l-4.7,9.3C388.8,157.9,388.9,158,389,158z"/>
	<path class="st1" d="M403.8,143.7h5.3c0,0,0.1,0,0.1,0.1l8.9,9.8c0,0,0.1,0,0.2,0c0.1,0,0.1,0,0.2,0l8-9.8c0,0,0.1-0.1,0.2-0.1h5.1
		c0.1,0,0.2,0,0.2,0.1c0,0.1,0,0.2,0,0.2l-11.4,13.1c0,0,0,0.1,0,0.2v8.7c0,0.1-0.1,0.2-0.2,0.2h-3.8c-0.1,0-0.2-0.1-0.2-0.2v-8.7
		c0,0,0-0.1-0.1-0.2L403.6,144c-0.1-0.1-0.1-0.1,0-0.2C403.6,143.7,403.7,143.7,403.8,143.7z"/>
	<path class="st1" d="M456.7,166.7c-1,0-2-0.1-3-0.4c-1.1-0.2-2.1-0.6-3.1-1c-1-0.5-2-1-3-1.7c-0.9-0.7-1.8-1.4-2.5-2.3
		c-0.7-0.9-1.3-1.8-1.7-2.9c-0.4-1.1-0.6-2.2-0.6-3.5c0-1.4,0.2-2.7,0.6-3.8c0.4-1.1,1-2.1,1.7-3c0.7-0.9,1.6-1.6,2.5-2.2
		c0.9-0.6,1.9-1.1,3-1.5c1-0.4,2.1-0.7,3.1-0.9c1.1-0.2,2-0.3,3-0.3c1.5,0,3.1,0.2,4.7,0.7c1.6,0.5,3.1,1.2,4.5,2.2
		c1.4,1,2.5,2.2,3.4,3.7c0.9,1.5,1.3,3.2,1.3,5.2c0,1.7-0.4,3.3-1.1,4.8c-0.7,1.4-1.7,2.7-2.9,3.7c-1.3,1-2.7,1.8-4.4,2.4
		C460.5,166.4,458.7,166.7,456.7,166.7z M456.7,147.5c-1.3,0-2.6,0.2-3.8,0.6c-1.2,0.4-2.2,0.9-3.1,1.6c-0.9,0.7-1.6,1.5-2.1,2.4
		c-0.5,0.9-0.8,1.9-0.8,2.9c0,1,0.3,2,0.8,2.9c0.5,0.9,1.2,1.7,2.1,2.4c0.9,0.7,1.9,1.2,3.1,1.6c1.2,0.4,2.4,0.6,3.8,0.6
		c1.3,0,2.6-0.2,3.8-0.6c1.2-0.4,2.2-0.9,3.1-1.6c0.9-0.7,1.6-1.5,2.1-2.4c0.5-0.9,0.8-1.9,0.8-2.9c0-1-0.3-2-0.8-2.9
		c-0.5-0.9-1.2-1.7-2.1-2.4c-0.9-0.7-1.9-1.2-3.1-1.6C459.3,147.7,458,147.5,456.7,147.5z"/>
	<path class="st1" d="M475.8,143.7h20c0.1,0,0.2,0.1,0.2,0.2l1.2,3.7c0,0.1,0,0.2,0,0.2c-0.1,0.1-0.1,0.1-0.2,0.1h-17
		c-0.2,0-0.2,0.1-0.2,0.2v5.7c0,0.2,0.1,0.2,0.2,0.2h13c0.1,0,0.2,0,0.2,0.1c0.1,0.1,0.1,0.1,0,0.2l-1.2,3.7c0,0.1-0.1,0.2-0.2,0.2
		H480c-0.2,0-0.2,0.1-0.2,0.2v7.3c0,0.2-0.1,0.3-0.3,0.3h-3.7c-0.2,0-0.3-0.1-0.3-0.3v-22C475.5,143.8,475.6,143.7,475.8,143.7z"/>
	<path class="st1" d="M509.7,143.7h20c0.1,0,0.2,0.1,0.2,0.2l1.2,3.7c0,0.1,0,0.2,0,0.2c-0.1,0.1-0.1,0.1-0.2,0.1h-17
		c-0.2,0-0.2,0.1-0.2,0.2v5.7c0,0.2,0.1,0.2,0.2,0.2h13c0.1,0,0.2,0,0.2,0.1c0.1,0.1,0.1,0.1,0,0.2l-1.2,3.7c0,0.1-0.1,0.2-0.2,0.2
		h-11.8c-0.2,0-0.2,0.1-0.2,0.2v7.3c0,0.2-0.1,0.3-0.3,0.3h-3.7c-0.2,0-0.3-0.1-0.3-0.3v-22C509.4,143.8,509.5,143.7,509.7,143.7z"
		/>
	<path class="st1" d="M535,166.2c-0.1,0-0.2-0.1-0.2-0.2v-22.1c0-0.1,0.1-0.2,0.2-0.2h3.8c0.1,0,0.2,0.1,0.2,0.2V166
		c0,0.1-0.1,0.2-0.2,0.2H535z"/>
	<path class="st1" d="M544.8,143.7h3.1c0.1,0,0.2,0,0.2,0.1l15.8,15.5c0,0,0.1,0,0.1,0c0.1,0,0.1,0,0.1-0.1l0-15.2
		c0-0.2,0.1-0.3,0.3-0.3h3.6c0.2,0,0.3,0.1,0.3,0.3l0,21.9c0,0.2-0.1,0.3-0.3,0.3h-2.9c-0.1,0-0.2,0-0.2-0.1l-15.9-15.6
		c0,0-0.1-0.1-0.1,0c0,0,0,0.1,0,0.1v15.3c0,0.2-0.1,0.3-0.3,0.3h-3.6c-0.2,0-0.3-0.1-0.3-0.3V144
		C544.5,143.8,544.6,143.7,544.8,143.7z"/>
	<path class="st1" d="M572.4,165.9l10.9-22c0.1-0.1,0.2-0.1,0.2-0.1h4.6c0.1,0,0.2,0,0.2,0.1l11,22c0,0.1,0,0.2,0,0.2
		c-0.1,0.1-0.1,0.1-0.2,0.1h-4.2c-0.1,0-0.2-0.1-0.2-0.2l-1.8-3.7c0-0.1-0.1-0.1-0.2-0.1H579c-0.1,0-0.1,0-0.2,0.1l-1.8,3.7
		c-0.1,0.1-0.1,0.2-0.2,0.2h-4.2c-0.1,0-0.2,0-0.2-0.1C572.3,166,572.3,165.9,572.4,165.9z M581.2,158h9.2c0.1,0,0.1,0,0.1-0.1
		c0-0.1,0-0.1,0-0.1l-4.6-9.3c0-0.1-0.1-0.1-0.2,0l-4.7,9.3C581,157.9,581.1,158,581.2,158z"/>
	<path class="st1" d="M603.6,143.7h3.1c0.1,0,0.2,0,0.2,0.1l15.8,15.5c0,0,0.1,0,0.1,0c0.1,0,0.1,0,0.1-0.1l0-15.2
		c0-0.2,0.1-0.3,0.3-0.3h3.6c0.2,0,0.3,0.1,0.3,0.3l0,21.9c0,0.2-0.1,0.3-0.3,0.3h-2.9c-0.1,0-0.2,0-0.2-0.1l-15.9-15.6
		c0,0-0.1-0.1-0.1,0c0,0,0,0.1,0,0.1v15.3c0,0.2-0.1,0.3-0.3,0.3h-3.6c-0.2,0-0.3-0.1-0.3-0.3V144
		C603.3,143.8,603.4,143.7,603.6,143.7z"/>
	<path class="st1" d="M655.2,164.9c0,0.1,0,0.1-0.1,0.2c-1,0.4-2.1,0.8-3.5,1.1c-1.4,0.3-2.9,0.5-4.5,0.5c-1.8,0-3.7-0.2-5.5-0.7
		c-1.8-0.5-3.4-1.1-4.9-2.1c-1.4-0.9-2.6-2.1-3.5-3.5c-0.9-1.4-1.3-3.1-1.3-5c0-1.7,0.3-3.1,0.8-4.4c0.5-1.2,1.2-2.3,2-3.2
		c0.8-0.9,1.8-1.7,2.8-2.2c1.1-0.6,2.1-1.1,3.2-1.4c1.1-0.3,2.2-0.6,3.2-0.7s2-0.2,2.8-0.2c1.8,0,3.4,0.1,4.8,0.4
		c1.4,0.3,2.6,0.6,3.5,0.9c0.1,0,0.1,0.1,0.1,0.2l0.3,4.3c0,0.1-0.1,0.2-0.2,0.2c0,0,0,0,0,0c0,0,0,0,0,0c-0.2-0.1-0.6-0.2-1.2-0.4
		c-0.5-0.2-1.2-0.4-1.9-0.6c-0.7-0.2-1.6-0.3-2.4-0.5c-0.9-0.1-1.9-0.2-2.9-0.2c-1.4,0-2.7,0.2-4,0.6c-1.3,0.4-2.4,0.9-3.4,1.6
		c-1,0.7-1.8,1.5-2.4,2.5c-0.6,1-0.9,2-0.9,3.2c0,0.9,0.2,1.7,0.6,2.5c0.4,0.7,0.9,1.3,1.5,1.9s1.3,1,2.1,1.3
		c0.8,0.3,1.6,0.6,2.4,0.8c0.8,0.2,1.6,0.4,2.4,0.5c0.8,0.1,1.5,0.1,2.1,0.1c0.9,0,1.8-0.1,2.7-0.3c0.9-0.2,1.7-0.4,2.4-0.6
		c0.7-0.2,1.4-0.5,1.9-0.7s1-0.5,1.3-0.6c0,0,0,0,0,0c0,0,0,0,0,0c0.2,0,0.2,0.1,0.2,0.2L655.2,164.9z"/>
	<path class="st1" d="M660.2,144.1c0-0.2,0.1-0.3,0.4-0.3h20.5c0.1,0,0.2,0.1,0.2,0.2l1.2,3.8c0,0.1,0,0.2,0,0.2
		c-0.1,0.1-0.1,0.1-0.2,0.1h-17.5c-0.2,0-0.3,0.1-0.3,0.3v4.2c0,0.2,0.1,0.2,0.2,0.2h13.1c0.1,0,0.1,0,0.2,0.1c0,0.1,0.1,0.1,0,0.2
		l-1.2,3.8c0,0.1-0.1,0.2-0.2,0.2h-11.9c-0.1,0-0.2,0.1-0.2,0.2v4.2c0,0.1,0,0.2,0.1,0.3c0.1,0.1,0.1,0.1,0.2,0.1h17.5
		c0.1,0,0.1,0,0.2,0.1c0.1,0.1,0.1,0.1,0,0.2l-1.2,3.8c0,0.1-0.1,0.2-0.2,0.2h-20.5c-0.2,0-0.4-0.1-0.4-0.3V144.1z"/>
</g>
</svg>
